
<svg xmlns="http://www.w3.org/2000/svg" viewBox="0 0 55 55">
	<style type="text/css">
		.st0{fill:#231F20;filter:url(#is1) url(#is2);}
		.st1{fill:#56C3BB;filter:url(#is1) url(#is2);}
		.st2{fill:#F78F2A;filter:url(#is1) url(#is2);}
		.st3{fill:#EE4A9A;filter:url(#is1) url(#is2);}
		.st4{fill:#FFCF2F;filter:url(#is1) url(#is2);}
		.st5{fill:#508AC8;filter:url(#is1) url(#is2);}
		.st6{fill:#3EB54A;filter:url(#is1) url(#is2);}
		.st7{fill:#8B52A1;filter:url(#is1) url(#is2);}
		.st8{fill:url(#SVGID_1_);filter:url(#defapp-filter-1);}
	</style>
	<filter id="is1">
		<feComponentTransfer in="SourceAlpha">
			<feFuncA type="table" tableValues="1 0"/>
		</feComponentTransfer>
		<feGaussianBlur stdDeviation="0"/>
		<feOffset dx="0" dy="-.75" result="offsetblur"/>
		<feFlood flood-color="#00000044" result="color"/>
		<feComposite in2="offsetblur" operator="in"/>
		<feComposite in2="SourceAlpha" operator="in"/>
		<feMerge>
			<feMergeNode in="SourceGraphic"/>
			<feMergeNode />
		</feMerge>
	</filter>
	<filter id="is2">
		<feComponentTransfer in="SourceAlpha">
			<feFuncA type="table" tableValues="1 0"/>
		</feComponentTransfer>
		<feGaussianBlur stdDeviation="0"/>
		<feOffset dx="0" dy=".75" result="offsetblur"/>
		<feFlood flood-color="#ffffff88" result="color"/>
		<feComposite in2="offsetblur" operator="in"/>
		<feComposite in2="SourceAlpha" operator="in"/>
		<feMerge>
			<feMergeNode in="SourceGraphic"/>
			<feMergeNode />
		</feMerge>
	</filter>
	<linearGradient id="SVGID_1_" gradientUnits="userSpaceOnUse" x1="27.5" y1="1.934" x2="27.5" y2="53.066">
		<stop offset="0" style="stop-color:#eee"/>
		<stop offset="1" style="stop-color:#bbb"/>
	</linearGradient>
	<filter filterUnits="objectBoundingBox" id="defapp-filter-1">
		<feOffset dx="0" dy=".5" in="SourceAlpha" result="defappShadowOffsetOuter1"></feOffset>
		<feGaussianBlur stdDeviation=".5" in="defappShadowOffsetOuter1" result="defappShadowBlurOuter1"></feGaussianBlur>
		<feColorMatrix values="0 0 0 0 0   0 0 0 0 0   0 0 0 0 0  0 0 0 0.5 0" type="matrix" in="defappShadowBlurOuter1" result="defappShadowMatrixOuter1"></feColorMatrix>
		<feMerge>
			<feMergeNode in="defappShadowMatrixOuter1"/>
			<feMergeNode in="SourceGraphic"/>
		</feMerge>
	</filter>
	<path class="st0" d="M45.6,52.6H9.4c-3.9,0-7-3.1-7-7V9.4c0-3.9,3.1-7,7-7h36.3c3.9,0,7,3.1,7,7v36.3C52.6,49.5,49.5,52.6,45.6,52.6 z"/>
	<rect x="31.5" y="18.7" transform="matrix(0.7071 -0.7071 0.7071 0.7071 -7.6399 36.5087)" class="st1" width="17.6" height="17.5"/>
	<path class="st2" d="M53,27.1V9c0-1.8-0.7-3.5-1.9-4.8L40.6,14.7L53,27.1z"/>
	<path class="st3" d="M3.9,4.2C2.7,5.5,2,7.2,2,9v37c0,1.8,0.7,3.5,1.9,4.8l23.3-23.3L3.9,4.2z"/>
	<polygon class="st4" points="27.5,27.9 15.4,40 39.6,40 "/>
	<path class="st5" d="M27.5,27.1L50.8,3.9C49.5,2.7,47.8,2,46,2H9C7.2,2,5.5,2.7,4.2,3.9L27.5,27.1z"/>
	<path class="st6" d="M27.8,53H46c3.9,0,7-3.1,7-7V27.8L27.8,53z"/>
	<path class="st7" d="M39.6,40.5H14.9L4.2,51.1C5.5,52.3,7.2,53,9,53h18.1L39.6,40.5z"/>
	<path class="st8" d="M46,3.5c3,0,5.5,2.5,5.5,5.5v37c0,3-2.5,5.5-5.5,5.5H9c-3,0-5.5-2.5-5.5-5.5V9C3.5,6,6,3.5,9,3.5H46 M46,2H9 C5.1,2,2,5.1,2,9v37c0,3.9,3.1,7,7,7h37c3.9,0,7-3.1,7-7V9C53,5.1,49.9,2,46,2L46,2z"/>
</svg>
