<svg xmlns="http://www.w3.org/2000/svg" width="0" height="0">

	<defs>
		<filter id="tangram-beveled">
			<feGaussianBlur stdDeviation="1" in="eroded" result="blured"/>
			<feSpecularLighting in="blured" result="specularKey" specularExponent="200" lighting-color="#fff" surfaceScale="1">
				<fePointLight x="100" y="-100" z="200" />
			</feSpecularLighting>
			<feSpecularLighting in="blured" result="specularFill" specularExponent="100" lighting-color="#33333355" surfaceScale="1">
				<fePointLight x="300" y="400" z="900" />
			</feSpecularLighting>
			<feBlend mode="screen" in="specularKey" in2="specularFill" result="specular"/>
			<feBlend mode="screen" in="specular" in2="SourceGraphic" result="comped"/>
			<feComposite in="comped" in2="SourceGraphic" operator="in" result="clipped"/>
		</filter>
	</defs>

	<svg id="icon-undo" viewBox="0 0 13 13">
		<style type="text/css">
			.st0{fill:#333;}
		</style>
		<path class="st0" d="M6.5,1.9C5,1.9,3.6,2.5,2.6,3.5L1,1.9V6h4.1L3.6,4.5c0.7-0.7,1.8-1.2,2.9-1.2c2.3,0,4.1,1.8,4.1,4.1c0,1.2-0.5,2.3-1.4,3.1 l0.9,1c1.1-1,1.9-2.5,1.9-4.1C12,4.3,9.5,1.9,6.5,1.9z"/>
	</svg>

	<svg id="icon-redo" viewBox="0 0 13 13">
		<style type="text/css">
			.st0{fill:#333;}
		</style>
		<path class="st0" d="M1,7.4c0,1.6,0.7,3.1,1.8,4.1l0.9-1C2.9,9.7,2.4,8.6,2.4,7.4c0-2.3,1.8-4.1,4.1-4.1c1.1,0,2.2,0.5,2.9,1.2L7.9,6H12V1.9 l-1.6,1.6c-1-1-2.4-1.6-3.9-1.6C3.5,1.9,1,4.4,1,7.4z"/>
	</svg>
	
</svg>