<svg xmlns="http://www.w3.org/2000/svg" width="0" height="0">

	<defs>
		<filter id="tangram-beveled">
			<feGaussianBlur stdDeviation="1" in="eroded" result="blured"/>
			<feSpecularLighting in="blured" result="specularKey" specularExponent="200" lighting-color="#fff" surfaceScale="1">
				<fePointLight x="50" y="-100" z="200" />
			</feSpecularLighting>
			<feSpecularLighting in="blured" result="specularFill" specularExponent="200" lighting-color="#9af" surfaceScale="1">
				<fePointLight x="450" y="400" z="900" />
			</feSpecularLighting>
			<feBlend mode="screen" in="specularKey" in2="specularFill" result="specular"/>
			<feBlend mode="screen" in="specular" in2="SourceGraphic" result="comped"/>
			<feComposite in="comped" in2="SourceGraphic" operator="in" result="clipped"/>
		</filter>
	</defs>

	<svg id="icon-undo" viewBox="0 0 13 13">
		<style type="text/css">
			.st0{fill:#333;}
		</style>
		<path class="st0" d="M6.5,1.9C5,1.9,3.6,2.5,2.6,3.5L1,1.9V6h4.1L3.6,4.5c0.7-0.7,1.8-1.2,2.9-1.2c2.3,0,4.1,1.8,4.1,4.1c0,1.2-0.5,2.3-1.4,3.1 l0.9,1c1.1-1,1.9-2.5,1.9-4.1C12,4.3,9.5,1.9,6.5,1.9z"/>
	</svg>

	<svg id="icon-redo" viewBox="0 0 13 13">
		<style type="text/css">
			.st0{fill:#333;}
		</style>
		<path class="st0" d="M1,7.4c0,1.6,0.7,3.1,1.8,4.1l0.9-1C2.9,9.7,2.4,8.6,2.4,7.4c0-2.3,1.8-4.1,4.1-4.1c1.1,0,2.2,0.5,2.9,1.2L7.9,6H12V1.9 l-1.6,1.6c-1-1-2.4-1.6-3.9-1.6C3.5,1.9,1,4.4,1,7.4z"/>
	</svg>
	
	<svg id="icon-chevron-left" viewBox="0 0 13 13">
		<style type="text/css">
			.st0{fill:#333;}
		</style>
		<polygon class="st0" points="9.2,1.6 8.5,0.8 3.5,5.8 3.5,5.8 2.8,6.5 3.5,7.2 8.5,12.2 9.2,11.4 4.2,6.5 "/>
	</svg>

	<svg id="icon-chevron-right" viewBox="0 0 13 13">
		<style type="text/css">
			.st0{fill:#333;}
		</style>
		<polygon class="st0" points="2.8,11.4 3.5,12.2 8.5,7.2 8.5,7.2 9.2,6.5 8.5,5.8 3.5,0.8 2.8,1.6 7.8,6.5 "/>
	</svg>

	<svg id="puzzle-box" viewBox="0 0 600 540">
		<style type="text/css">
			.st0{fill:#333;}
		</style>
		<path class="st0" d="M429,404H171c-1.7,0-3-1.4-3-3V143c0-1.7,1.4-3,3-3h258c1.7,0,3,1.4,3,3v258C432,402.6,430.6,404,429,404z"/>
	</svg>

	<svg id="puzzle-house" viewBox="0 0 600 540">
		<style type="text/css">
			.st0{fill:#333;}
		</style>
		<path class="st0" d="M173.2,299.9v119.6c0,1.7,1.3,3,3,3l247.2,0c1.7,0,3-1.3,3-3V300c0-1.7,1.3-3,3-3l35.6,0
	c2.7,0,4-3.2,2.1-5.1L383,207.7c-0.6-0.6-0.9-1.3-0.9-2.1v-85.1c0-1.7-1.3-3-3-3h-84.5c-1.7,0-3,1.3-3,3v77.2c0,2.7-3.2,4-5.1,2.1
	c-8-8-23.2-23.2-28.8-28.7c-1.2-1.2-3.1-1.2-4.2,0L132.8,291.8c-1.9,1.9-0.6,5.1,2.1,5.1l35.3,0
	C171.9,296.9,173.2,298.3,173.2,299.9z"/>
	</svg>

	<svg id="puzzle-tree" viewBox="0 0 600 540">
		<style type="text/css">
			.st0{fill:#333;}
		</style>
		<path class="st0" d="M212.6,359.9h39.2c1.7,0,3,1.3,3,3l0,82.7c0,1.7,1.3,3,3,3h84.8c1.7,0,3-1.3,3-3l0-82.8
	c0-1.7,1.3-3,3-3h39.2c0.8,0,1.6-0.3,2.1-0.9l86.7-87c1.2-1.2,1.2-3.1,0-4.2l-174.2-174c-1.2-1.2-3.1-1.2-4.2,0L123.2,267.6
	c-1.2,1.2-1.2,3.1,0,4.3l87.4,87.1C211.1,359.5,211.8,359.9,212.6,359.9z"/>
	</svg>

</svg>