<svg xmlns="http://www.w3.org/2000/svg" width="0" height="0">

	<defs>
		<filter id="tangram-beveled">
			<feGaussianBlur in="SourceAlpha" stdDeviation="2" result="blur"></feGaussianBlur>
			<feColorMatrix values="0 0 0 0 0   0 0 0 0 0   0 0 0 0 0  0 0 0 0.5 0" type="matrix" in="blur" result="clrMatrix"></feColorMatrix>
			<!-- offsetBlur -->
			<feOffset in="clrMatrix" dx="0" dy="3" result="offsetBlur"></feOffset>
			<!-- highlight -->
			<feSpecularLighting in="clrMatrix" surfaceScale="8" specularConstant=".7" specularExponent="65" result="highlight" lighting-color="#ddd">
			    <fePointLight x="-5000" y="-10000" z="20000"></fePointLight>
			</feSpecularLighting>
			<!-- highlightApplied -->
			<feComposite in="highlight" in2="SourceAlpha" operator="in" result="highlightApplied"></feComposite>
			<!-- highlightText -->
			<feComposite in="SourceGraphic" in2="highlightApplied" operator="arithmetic" k2="1" k3="1.25" result="highlightText"></feComposite>
			<!-- 5af21839-d7d1-40a0-8f26-75527cfdc952 -->
			<feMerge>
			    <feMergeNode in="offsetBlur"></feMergeNode>
			    <feMergeNode in="highlightText"></feMergeNode>
			</feMerge>
		</filter>
	</defs>

	<svg id="tangram-logo" viewBox="0 0 482 103" cache="keep">
		<style type="text/css">
			.st0{fill:url(#SVG-GR-1);}
		</style>
		<linearGradient id="SVG-GR-1" x1=".5" y1="0" x2=".5" y2="1">
			<stop offset="0%" stop-color="#ff3a00" />
			<stop offset="100%" stop-color="#ffc400" />
		</linearGradient>
		<path class="st0" d="M85,12.3C72.8,24.5,66.5,35,66,43.7c-0.1,3.3,1.8,4.9,6,4.9c0.9,0,1.9-0.1,3-0.2L45.7,62c0.1-10.3,2.8-19.6,8-27.8l-2,0.7 l-2.5,1c-5.7,10.9-8.5,19-8.5,24.4c0,3,1,5,2.9,5.9c0.9,0.4,1.9,0.6,3,0.6c2.3,0,5-0.9,8.3-2.6c4.8-2.6,7.4-4.7,7.7-6.2l37.9,39.3 l-4,3.3c-5.1-5.2-12.5-7.8-22.4-7.8c-2.4,0-5,0.1-7.7,0.5c-6.4,0.7-12,0.8-16.7,0.4c-6.8-0.7-12.3-3.6-16.2-8.6 c-3.7-4.7-5.7-10.6-6-17.7c-0.1-2.5-0.1-5-0.1-7.6c0-6.6,0.3-13.6,0.9-20.8l-6.6,0.1l-5.2,5.8C12,39.4,6.9,34.9,1.3,30.9L5,21.6 c7.5,2.3,16,3.3,25.5,3.2c0.6-2.2,1.1-4.1,1.5-5.6L62.4,7l-4.2,8.8C63.7,12.7,68.3,8,72.1,1.8L85,12.3z"/>
		<path class="st0" d="M136.5,37.1c0,4-2,9.1-5.9,15.6c2.9-0.5,6.1-0.7,9.5-0.7c0.9,0,1.9,0,2.8,0l-16,33c0.1-0.8,0.2-1.7,0.2-2.5 c0-2.1-0.6-3.2-1.9-3.2c-0.6,0-1.5,0.2-2.4,0.5c-4.1,1.9-7.3,3.6-9.7,4.9c-2.6,1.4-5.3,2.1-8.1,2.1c-7.8,0-15.5-5.3-23.1-15.9 c-4.7-6.6-7.1-11.9-7.1-16c0-5,3.5-7.8,10.4-8.3L72,33.1l2.4-2.9c3.9,2.3,9,3.5,15.6,3.5c8.3,0,18.7-1.9,31.2-5.6 C131.4,27.8,136.5,30.8,136.5,37.1z M95.8,58.6c-2.2,0-3.3,0.5-3.3,1.4c0,0.5,0.3,1.2,0.8,2c1.3,2.6,3.4,4,6.1,4 c3.1,0,7.1-1.8,12.1-5.4l-4.2-0.7C101.7,59.1,97.9,58.6,95.8,58.6z M104.7,47c3.9,0.1,8.6,1,14,2.4c0.8-0.7,1.7-2.1,2.8-4 c0.4-0.8,0.7-1.4,0.7-1.7c0-0.4-0.4-0.7-1.4-0.7c-0.7,0-1.8,0.1-3.3,0.4C113.7,44.1,109.5,45.3,104.7,47z"/>
		<path class="st0" d="M218.5,34.1c-4.7,0.1-6.8,3.3-6.5,9.4c0,1.2,0.1,2.5,0.1,3.9c0,5.8-0.6,13.3-1.7,22.7c-1.4,11.7-4.3,20.5-8.9,26.6 c-6,0.2-12.7,0.9-20.1,2.1c-11.8-15.5-17.8-32-18-49.5c-0.3,8.3-1,14.7-2.2,19.2L166,73c-0.5,8-2.4,15.8-5.5,23.5 c-12.6,0.5-24.2,1.1-34.8,1.7l-1.4-5.5c6.1-5.3,10.7-12.9,14-23l7.5-3.4c2.2-4.6,3.8-10.2,4.6-16.7c0.1-1.1,0.2-2.1,0.2-3 c0-4.6-1.7-7.1-5.3-7.5l33-9.1c-0.9,4.9-1.4,9.1-1.4,12.7c0,9.4,2.3,19,6.8,28.9c0.1-2.7,0.2-5.3,0.2-7.9c0-16.4-2.8-31.4-8.3-45.1 L218.5,34.1z"/>
		<path class="st0" d="M266.3,2.5c-5,13.3-7.6,21.4-7.6,24.1c0,1.3,0.5,2,1.6,2c1,0,2.4-0.5,4.2-1.7l-0.2,5.4c-8.7,5.3-15.8,9.4-21,12.3 c-0.1-1.8-0.2-3.5-0.2-5.2c0-2.9,0.2-5.7,0.7-8.3c-5.1,4.9-8.1,9.4-8.9,13.7c-0.1,0.9-0.2,1.7-0.2,2.5c0,2.8,1.2,4.7,3.6,5.6 c1.6,0.6,3,0.9,4.3,0.9c3.2,0,4.8-0.8,4.9-2.4c0-1.2-1.1-2.9-3.4-5l27.6-14.6l1.5,2.6c-3.1,2.2-4.6,5.2-4.6,8.8 c0,2.2,0.8,5.5,2.4,9.7s2.4,8,2.4,11.1c0,5.3-1.4,10.9-4.3,16.9c-0.2-5.5-1.5-8.2-3.8-8.2c-0.6,0-1.4,0.2-2.2,0.6 c-4.9,4.1-10.8,6.1-17.7,6.1c-3.4,0-7-0.5-10.8-1.5c-11.6-3.1-17.8-9.8-18.6-20.2c-0.1-1.4-0.1-2.8-0.1-4.1c0-8.5,2.1-15.3,6.2-20.6 c4.8-6,8.1-9.9,9.7-11.6c1.1-1.1,1.6-2,1.6-2.7c0-0.7-0.3-1.1-1-1.1c-1.2,0-3.9,1.5-7.9,4.5c3.4-4.5,6.3-9.1,8.7-13.7 c4.2,3.2,8.5,6,12.9,8.3c0.4-2.7,1-5.8,1.9-9.3L266.3,2.5z"/>
		<path class="st0" d="M273.6,12.6l67.6,0.2c-2.8,1-4.3,2.8-4.6,5.3c-0.3,18.3-8.9,28.6-25.8,30.9c1.8-0.1,3.8-0.2,5.9-0.2c4,0,8.3,0.3,13.2,1 c6.3,0.8,10.7,2.1,13.4,3.6c3.7,2.2,6.1,5.9,7.4,11.2c0.9,3.7,1.7,6.2,2.4,7.3c1.3,2.1,3.5,3,6.4,2.8l-0.1,5.3l-37,0.1 c0-2,0.1-3.9,0.1-5.7c0-9.4-0.9-14.7-2.8-15.8c-1.9-1.2-4.2-1.9-7.2-2.1c-2.6-0.1-5.1-0.2-7.7-0.3l0.9,2.9l8.2,2.5l6.2,13.4 l-1.7,4.5c-4.2-0.3-8.8-0.4-13.9-0.4c-5.5,0-11.4,0.2-17.9,0.5c-0.5-4.4-1.4-9.6-2.6-15.3l5.5-4.1l-1.3-4.7c-2.2,0-4.2,0-6.1,0.2 l-2.1-9.9c1.4-0.1,3.2-0.5,5.4-1l-0.9-3.9l-1.2-6.2c-3.6,0.5-5.5,3.3-5.8,8.3L273.6,12.6z M300.7,42.2c8.1-1.4,12.1-3.9,12.1-7.5 c0-0.2,0-0.5,0-0.8c-1-0.1-2.4-0.1-4.2-0.1c-2.6,0-6.1,0.1-10.4,0.3L300.7,42.2z"/>
		<path class="st0" d="M402.9,10.8c0,4-2,9.1-5.9,15.6c2.9-0.5,6.1-0.7,9.5-0.7c0.9,0,1.9,0,2.8,0l-8.9,16.6l-1.3,2.1c-1,1.5-5.1,7.7-5.9,9 c0.6-2.1,0.1-4-1.2-4c-0.6,0-3.5,0.7-4.5,1.1c-4.1,1.9-5.7,6.6-8.1,7.9c-2.6,1.4-5.3,2.1-8.1,2.1c-7.8,0-15.5-5.3-23.1-15.9 c-4.7-6.6-7.1-11.9-7.1-16c0-5,3.5-7.8,10.4-8.3L338.4,6.8l2.4-2.9c3.9,2.3,9,3.5,15.6,3.5c8.3,0,18.7-1.9,31.2-5.6 C397.9,1.4,402.9,4.4,402.9,10.8z M362.3,32.2c-2.2,0-3.3,0.5-3.3,1.4c0,0.5,0.3,1.2,0.8,2c1.3,2.6,3.4,4,6.1,4 c3.1,0,7.1-1.8,12.1-5.4l-4.2-0.7C368.1,32.7,364.3,32.2,362.3,32.2z M371.1,20.6c3.9,0.1,8.6,1,14,2.4c0.8-0.7,1.7-2.1,2.8-4 c0.4-0.8,0.7-1.4,0.7-1.7c0-0.4-0.4-0.7-1.4-0.7c-0.7,0-1.8,0.1-3.3,0.4C380.2,17.7,375.9,18.9,371.1,20.6z"/>
		<path class="st0" d="M479.6,5.1c-6.8,4.3-8.4,14.3-9,16.7c-2.8,10.7-0.8,24.9-0.4,28.9l6.3,3.6c0,9.4,1.1,19.3,3.3,29.7l-3.2,4.1 c-7.3-3.9-15.3-6.8-24-8.9c-1.4-0.3-2.9-0.6-4.3-0.9c1-17.4,2.8-31,5.3-40.7c-3.3,12.7-6.8,24.5-10.6,35.4l-8.6,0.6 c0.9-14.8-0.6-28.5-4.6-41.2c-0.3,5.9-1.1,11-2.2,15.3l4,2.6l-2.4,21l-36.4-2l-0.4-8.3c7.4-3.6,13-9.2,16.9-16.7l4.5-0.5 c0.2-0.8,0.4-1.6,0.6-2.4c0.6-2.5,1-5.3,1.3-8.3c0.3-4,0.1-6.5-0.8-7.3c-0.5-0.5-1-0.8-1.4-0.9c-0.7-0.2-1.2,0.6-1.6,2.2 c-0.1,0.6-0.3,1.3-0.4,2.2l-2.5-18.1l31.8-6.8c0.4,6.4,1.2,12.5,2.3,18.5c0.4-1.8,0.8-3.5,1.2-5.3c1-4.1,2-8.2,3.2-12.1L479.6,5.1z" />
	</svg>
	
</svg>