<svg xmlns="http://www.w3.org/2000/svg" width="0" height="0">

	<svg id="icon-chevron-left" viewBox="0 0 13 13">
		<style type="text/css">
			.st0{fill:#333;}
		</style>
		<polygon class="st0" points="9.2,1.6 8.5,0.8 3.5,5.8 3.5,5.8 2.8,6.5 3.5,7.2 8.5,12.2 9.2,11.4 4.2,6.5 "/>
	</svg>

	<svg id="icon-chevron-right" viewBox="0 0 13 13">
		<style type="text/css">
			.st0{fill:#333;}
		</style>
		<polygon class="st0" points="2.8,11.4 3.5,12.2 8.5,7.2 8.5,7.2 9.2,6.5 8.5,5.8 3.5,0.8 2.8,1.6 7.8,6.5 "/>
	</svg>

	<svg id="puzzle-box" viewBox="0 0 600 540">
		<style type="text/css">
			.st0{fill:#333;}
		</style>
		<path class="st0" d="M430.5,404h-261c-0.8,0-1.5-0.7-1.5-1.5v-261c0-0.8,0.7-1.5,1.5-1.5h261c0.8,0,1.5,0.7,1.5,1.5v261 C432,403.3,431.3,404,430.5,404z"/>
	</svg>

	<svg id="puzzle-house" viewBox="0 0 306 306">
		<style type="text/css">
			.st0{fill:#333;}
		</style>
		<path class="st0" d="M61,167.5H84.5V235a.32.32,0,0,0,0,.09s0,.07,0,.1,0,0,0,0a.71.71,0,0,0,.2.2s0,0,0,0a.43.43,0,0,0,.19,0H221a.43.43,0,0,0,.19,0s0,0,0,0a.71.71,0,0,0,.2-.2s0,0,0,0,0-.06,0-.1a.32.32,0,0,0,0-.09V167.54h23.58a.5.5,0,0,0,.47-.31.51.51,0,0,0-.11-.54l-47.9-47.9V71a.5.5,0,0,0-.5-.5H149a.5.5,0,0,0-.5.5v46.79l-19.11-19.1a.48.48,0,0,0-.7,0l-68,68a.47.47,0,0,0-.11.54A.5.5,0,0,0,61,167.5Z"/>
	</svg>

	<svg id="puzzle-tree" viewBox="0 0 306 306">
		<style type="text/css">
			.st0{fill:#333;}
		</style>
		<path class="st0" d="M56.53,153.26s0,0,0,.05l48.09,48.09a.5.5,0,0,0,.35.14h23.46V249a.5.5,0,0,0,.5.5H177a.5.5,0,0,0,.5-.5v-47.5H201a.5.5,0,0,0,.47-.34l47.63-47.63a.52.52,0,0,0,.41-.3.47.47,0,0,0,0-.4.17.17,0,0,0,0-.1.48.48,0,0,0-.28-.26L153.71,57v-.08a.49.49,0,0,0-.31-.46.5.5,0,0,0-.34,0,.53.53,0,0,0-.33,0,.5.5,0,0,0-.31.47V57l-96,95.48a.51.51,0,0,0-.11.55A.5.5,0,0,0,56.53,153.26Z"/>
	</svg>

</svg>